# xmcd
#
# Track frame offsets: 
#        150
#        10811
#        19963
#        31655
#        43683
#        54429
#        66814
#        79516
#        88989
#        100904
#        111705
#        125442
#
# Disc length: 1818 seconds
#
# Revision: 0
# Processed by: cddbd v1.5.2PL0 Copyright (c) Steve Scherf et al.
# Submitted via: ExactAudioCopy v1.0b1
#
DISCID=9907180c
DTITLE=Porter Wagoner - The Best Of Porter Wagoner
DYEAR=1966
DGENRE=Country
TTITLE0=Y'All Come
TTITLE1=Sorrow On The Rocks
TTITLE2=Misery Loves Company
TTITLE3=I've Enjoyed As Much Of This As I Can Stand
TTITLE4=Green, Green Grass Of Home
TTITLE5=Company's Comin'
TTITLE6=A Satisfied Mind
TTITLE7=Dooley
TTITLE8=I Thought I Heard You Call My Name
TTITLE9=Uncle Pen
TTITLE10=Skid Row Joe
TTITLE11=I'll Go Down Swinging
EXTD=
EXTT0=
EXTT1=
EXTT2=
EXTT3=
EXTT4=
EXTT5=
EXTT6=
EXTT7=
EXTT8=
EXTT9=
EXTT10=
EXTT11=
PLAYORDER=
